<?xml version="1.0" encoding="utf-8"?>
<!-- Generator: Adobe Illustrator 17.0.0, SVG Export Plug-In . SVG Version: 6.00 Build 0)  -->
<!DOCTYPE svg PUBLIC "-//W3C//DTD SVG 1.1//EN" "http://www.w3.org/Graphics/SVG/1.1/DTD/svg11.dtd">
<svg version="1.1" id="Calque_1" xmlns="http://www.w3.org/2000/svg" xmlns:xlink="http://www.w3.org/1999/xlink" x="0px" y="0px"
	 width="17.317px" height="17.317px" viewBox="0 0 17.317 17.317" enable-background="new 0 0 17.317 17.317" xml:space="preserve">
<g>
	<g>
		<path d="M8.659,0C3.877,0,0,3.877,0,8.659s3.877,8.659,8.659,8.659s8.659-3.877,8.659-8.659C17.317,3.877,13.441,0,8.659,0z
			 M12.948,14.14H4.369V6.525H5.38V5.323c0-1.808,1.471-3.279,3.279-3.279s3.279,1.471,3.279,3.279v1.202h1.011v7.615H12.948z"/>
		<path d="M8.659,3.284c-1.124,0-2.038,0.914-2.038,2.038v1.202h4.076V5.323C10.697,4.199,9.782,3.284,8.659,3.284z"/>
	</g>
</g>
</svg>
