<!-- Generator: Adobe Illustrator 19.2.0, SVG Export Plug-In  -->
<svg version="1.1"
	 xmlns="http://www.w3.org/2000/svg" xmlns:xlink="http://www.w3.org/1999/xlink" xmlns:a="http://ns.adobe.com/AdobeSVGViewerExtensions/3.0/"
	 x="0px" y="0px" width="62px" height="86px" viewBox="0 0 62 86" style="enable-background:new 0 0 62 86;" xml:space="preserve">
<style type="text/css">
	.st0{fill:#FFFFFF;}
</style>
<defs>
</defs>
<g>
	<g>
		<g>
			<path class="st0" d="M56.5,22.3h-9.4c0-7.8-7.3-14.1-16.3-14.1s-16.3,6.3-16.3,14.1H5.1C5.1,10,16.6,0,30.8,0S56.5,10,56.5,22.3z
				"/>
		</g>
	</g>
	<g>
		<path class="st0" d="M55.2,27H6.8C3.1,27,0,30.1,0,33.8v45.3C0,82.9,3.1,86,6.8,86h48.3c3.8,0,6.8-3.1,6.8-6.8V33.8
			C62,30.1,58.9,27,55.2,27z M36.9,72H24.6l1.5-18.8c-2.1-1.5-3.5-3.8-3.5-6.5c0-4.5,3.6-8.1,8.1-8.1c4.5,0,8.1,3.7,8.1,8.2
			c0,2.8-1.4,5-3.5,6.4L36.9,72z"/>
	</g>
</g>
</svg>
