<?xml version="1.0" encoding="utf-8"?>
<!-- Generator: Adobe Illustrator 18.0.0, SVG Export Plug-In . SVG Version: 6.00 Build 0)  -->
<!DOCTYPE svg PUBLIC "-//W3C//DTD SVG 1.1//EN" "http://www.w3.org/Graphics/SVG/1.1/DTD/svg11.dtd">
<svg version="1.1" id="Calque_1" xmlns="http://www.w3.org/2000/svg" xmlns:xlink="http://www.w3.org/1999/xlink" x="0px" y="0px"
	 viewBox="0 0 23 19" enable-background="new 0 0 23 19" xml:space="preserve">
<path opacity="0.8" fill="#FFFFFF" d="M20.9,16.7l-5.4-5.2l0.4-0.6c0.6-1,0.9-2.1,0.9-3.3C16.8,4,13.7,1,9.9,1C6.1,1,3,4,3,7.6
	s3.1,6.6,6.9,6.6c1.3,0,2.6-0.4,3.7-1l0.7-0.4l5.3,5.1L20.9,16.7z M9.9,2.3c3.1,0,5.6,2.4,5.6,5.4c0,3-2.5,5.4-5.6,5.4
	s-5.6-2.4-5.6-5.4C4.3,4.7,6.8,2.3,9.9,2.3z"/>
</svg>
