<!-- Generator: Adobe Illustrator 21.1.0, SVG Export Plug-In  -->
<svg version="1.1"
	 xmlns="http://www.w3.org/2000/svg" xmlns:xlink="http://www.w3.org/1999/xlink" xmlns:a="http://ns.adobe.com/AdobeSVGViewerExtensions/3.0/"
	 x="0px" y="0px" viewBox="0 0 814 296.2" style="enable-background:new 0 0 814 296.2;"
	 xml:space="preserve">
<defs>
</defs>
<g>
	<g>
		<path d="M164.2,127.4c-5.2,0-10.3,1.8-15.1,5.3c-4.6,3.4-8.9,7.2-12.8,11.5l-0.7-14H128v166h9v-62c4,4,7.9,7.2,11.7,9.5
			c4.2,2.5,8.2,3.7,12.1,3.7c4.9,0,9.5-1.4,14-4.2c4.4-2.8,8.4-6.9,11.8-12.2c3.4-5.3,6.1-11.8,8-19.4c1.9-7.6,2.9-16.3,2.9-25.9
			c0-17.6-2.8-31.9-8.3-42.4C183.8,132.8,175.3,127.4,164.2,127.4z M163,137.6c4.5,0,8.5,1.2,11.7,3.6c3.2,2.4,5.9,5.7,7.9,10
			c2,4.3,3.5,9.4,4.5,15.3c1,5.9,1.4,12.4,1.4,19.3c0,7.6-0.7,14.7-2.1,21c-1.4,6.3-3.4,11.8-5.9,16.3c-2.5,4.5-5.5,8-8.9,10.5
			c-3.4,2.4-7.2,3.7-11.2,3.7c-3.1,0-6.5-1.1-10.5-3.2c-4-2.1-8.9-5.9-12.9-11.1V156c5-5.9,9.4-10.4,13.7-13.6
			C155,139.2,159.1,137.6,163,137.6z"/>
		<path d="M411.2,143.2c-3.4-5.1-7.4-9-12-11.7c-4.6-2.7-9.4-4.1-14.4-4.1c-5,0-9.8,1.4-14.3,4.1c-4.5,2.7-8.5,6.7-11.9,11.7
			c-3.4,5.1-6.1,11.4-8.1,18.9c-2,7.5-3,16.1-3,25.5c0,9.4,1,18,3,25.3c2,7.3,4.7,13.6,8.1,18.7c3.4,5.1,7.4,9,11.9,11.7
			c4.5,2.7,9.3,4.1,14.3,4.1c5,0,9.8-1.4,14.4-4.1c4.5-2.7,8.6-6.6,12-11.7c3.4-5.1,6.1-11.3,8.1-18.7c2-7.3,3-15.8,3-25.3
			c0-9.4-1-18-3-25.5C417.3,154.7,414.6,148.3,411.2,143.2z M384.9,237.2c-4,0-7.7-1.2-11.2-3.6c-3.5-2.4-6.5-5.8-9-10.1
			c-2.5-4.3-4.6-9.6-6-15.7c-1.5-6.1-2.2-12.9-2.2-20.2c0-7.5,0.7-14.4,2.2-20.4c1.5-6.1,3.5-11.4,6-15.8c2.5-4.4,5.5-7.8,9-10.2
			c3.4-2.4,7.2-3.6,11.2-3.6s7.8,1.2,11.3,3.6c3.5,2.4,6.6,5.8,9.1,10.2c2.5,4.4,4.6,9.7,6,15.8c1.5,6.1,2.2,13,2.2,20.4
			c0,7.3-0.7,14.1-2.2,20.2c-1.5,6.1-3.5,11.3-6,15.7c-2.5,4.3-5.6,7.7-9.1,10.1C392.7,236,388.9,237.2,384.9,237.2z"/>
		<path d="M663.9,127.4c-4.9,0-9.7,2.2-14.3,6.4c-4.3,4-8.8,9.4-13.4,16c-1.5-6.6-4-12-7.4-16c-3.6-4.3-8.9-6.4-15.6-6.4
			c-4.7,0-9.3,2-13.9,5.9c-4.4,3.7-8.4,8.5-12,14l-0.7-17.1H579v114h9v-85.5c9-13.9,16.8-20.9,24-20.9c6.2,0,10.7,2.7,13.6,8.3
			c2.9,5.7,4.4,14.6,4.4,26.6v71.5h8v-85.5c9-13.9,17.1-20.9,24.3-20.9c6.1,0,10.4,2.7,13.3,8.3c2.9,5.7,4.3,14.6,4.3,26.6v71.5h9
			v-72.9C689,142.2,680.6,127.4,663.9,127.4z"/>
	</g>
	<g>
		<path d="M0,0c91.7,47.5,239.8,78.4,407,78.4S722.4,47.5,814,0c-95.5,41.3-242.3,67.8-407,67.8S95.5,41.3,0,0z"/>
	</g>
</g>
</svg>
