<svg id="Calque_1" data-name="Calque 1" xmlns="http://www.w3.org/2000/svg" width="70" height="70" viewBox="0 0 70 70"><title>metro</title><path d="M53.6,54a33.43,33.43,0,0,0,3.5-1.11c2.22-.85,1.93-3.05,1.93-4.67V33.89c0-.92,0-4.25,0-5.91L57.24,8.81S57,1.32,34.9,1.32c-21.8,0-22.68,7.07-22.68,7.07L10.37,28c0,1.62,0,5,0,5.91V48.25c0,1.62-.3,3.84,1.93,4.67a36.39,36.39,0,0,0,4,1.21L9.74,68.68h6.11l1.27-4.19H52.88l1.27,4.19h6.11ZM25.52,5.67a1.53,1.53,0,0,1,1.53-1.53H42.38a1.53,1.53,0,0,1,1.53,1.53v1.6A1.53,1.53,0,0,1,42.38,8.8H27.05a1.53,1.53,0,0,1-1.53-1.53ZM13.91,26.83,15,14c0-1.16.26-2.15,2.33-2.15H51.58c2.07,0,2.86,1,2.86,2.21l1.09,12.8c0,1.16-1.68,2.11-3.75,2.11H17.66C15.59,28.94,13.91,28,13.91,26.83Zm1.43,15.59a4.41,4.41,0,1,1,4.42,4.42h-.09A4.42,4.42,0,0,1,15.34,42.43Zm3.17,17.44,1.5-5a92.23,92.23,0,0,0,30-.07l1.52,5ZM50.29,46.74a4.46,4.46,0,0,1-1,.11,4.37,4.37,0,0,1-1.91-.44,4.41,4.41,0,1,1,2.86.33Z" style="fill:#28282d"/></svg>