<svg id="Calque_1" data-name="Calque 1" xmlns="http://www.w3.org/2000/svg" width="70" height="70" viewBox="0 0 70 70"><title>parking</title><path d="M50.95,36.59Q46.65,40,39.6,40H30.94a.56.56,0,0,0-.63.63V55.09q0,1.33-1.5,1.33H21.42a1,1,0,0,1-1.21-1.15V14.68q0-1.1.92-1.1H38.45A23.49,23.49,0,0,1,47,15.05a13.26,13.26,0,0,1,6,4.47,12.08,12.08,0,0,1,2.22,7.39Q55.25,33.15,50.95,36.59ZM43,22.3a8.08,8.08,0,0,0-5.14-1.5H31.41a1.25,1.25,0,0,0-.84.23,1,1,0,0,0-.26.81v9.87a1.55,1.55,0,0,0,.17.84.71.71,0,0,0,.63.26h7.1a7,7,0,0,0,4.85-1.62,5.69,5.69,0,0,0,1.79-4.45A5.32,5.32,0,0,0,43,22.3Z" style="fill:#28282d"/><path d="M59.49,69h-49A9.52,9.52,0,0,1,1,59.49v-49A9.52,9.52,0,0,1,10.51,1h49A9.52,9.52,0,0,1,69,10.51v49A9.52,9.52,0,0,1,59.49,69Zm-49-65.09a6.61,6.61,0,0,0-6.6,6.6v49a6.61,6.61,0,0,0,6.6,6.6h49a6.61,6.61,0,0,0,6.6-6.6v-49a6.61,6.61,0,0,0-6.6-6.6Z" style="fill:#28282d"/></svg>