<!-- Generator: Adobe Illustrator 21.1.0, SVG Export Plug-In  -->
<svg version="1.1"
	 xmlns="http://www.w3.org/2000/svg" xmlns:xlink="http://www.w3.org/1999/xlink" xmlns:a="http://ns.adobe.com/AdobeSVGViewerExtensions/3.0/"
	 x="0px" y="0px" viewBox="0 0 236 236" style="enable-background:new 0 0 236 236;"
	 xml:space="preserve">
<style type="text/css">
	.st0{fill:none;}
</style>
<defs>
</defs>
<g>
	<rect class="st0" width="236" height="236"/>
	<path d="M167.4,97.9h-4.7V71c0-9.2-3.6-17.8-10.1-24.4c-6.5-6.5-15.2-10.1-24.4-10.1h-19.8c-19,0-34.5,15.5-34.5,34.5v26.9h-4.7
		c-6.4,0-11.6,5.2-11.6,11.6v89.8c0,6.4,5.2,11.6,11.6,11.6h98.2c6.4,0,11.6-5.2,11.6-11.6v-89.8c0-3.1-1.2-6-3.4-8.2
		C173.4,99.1,170.5,97.9,167.4,97.9z M80.3,71c0-15.5,12.6-28,28-28h19.8c15.5,0,28,12.6,28,28v26.9H80.3V71z M167.4,204.5H69.2
		c-2.9,0-5.2-2.3-5.2-5.2v-89.8c0-2.9,2.3-5.2,5.2-5.2h98.2c2.9,0,5.2,2.3,5.2,5.2l0,89.8C172.6,202.1,170.2,204.5,167.4,204.5z"/>
	<path d="M118.3,136c-8.8,0-15.9,7.1-15.9,15.9c0,5.4,2.8,10.4,7.3,13.3v17.7c0,4.7,3.8,8.6,8.6,8.6c4.7,0,8.6-3.8,8.6-8.6v-17.7
		c4.5-2.9,7.3-7.9,7.3-13.3C134.2,143.1,127,136,118.3,136z M123.7,162.1l-1.1,0.6v20.2c0,2.4-2,4.4-4.4,4.4c-2.4,0-4.4-1.9-4.4-4.4
		v-20.2l-1.1-0.6c-3.8-2-6.2-6-6.2-10.2c0-6.4,5.2-11.7,11.7-11.7c6.4,0,11.7,5.2,11.7,11.7C129.9,156.1,127.6,160,123.7,162.1z"/>
</g>
</svg>
