<!-- Generator: Adobe Illustrator 21.1.0, SVG Export Plug-In  -->
<svg version="1.1"
	 xmlns="http://www.w3.org/2000/svg" xmlns:xlink="http://www.w3.org/1999/xlink" xmlns:a="http://ns.adobe.com/AdobeSVGViewerExtensions/3.0/"
	 x="0px" y="0px" viewBox="0 0 236 236" style="enable-background:new 0 0 236 236;"
	 xml:space="preserve">
<style type="text/css">
	.st0{fill:none;}
</style>
<defs>
</defs>
<g>
	<rect class="st0" width="236" height="236"/>
	<g>
		<path d="M117.8,199.4L104,186.9c-39.2-35.6-65-59.1-65-89.1c0-25.3,19.8-45.1,45.1-45.1c12.4,0,24.7,5.1,33.7,13.8
			c9-8.7,21.2-13.8,33.7-13.8c25.3,0,45.1,19.8,45.1,45.1c0,30-25.9,53.6-65.2,89.2L117.8,199.4z M84.1,60.7
			C63.3,60.7,47,77,47,97.9c0,26.4,24.8,49,62.4,83.1l8.4,7.6l8.2-7.4c37.7-34.2,62.7-56.8,62.7-83.3c0-20.8-16.3-37.1-37.1-37.1
			c-11.6,0-23,5.3-30.6,14.2l-3,3.6l-3-3.6C107.2,66.1,95.7,60.7,84.1,60.7z"/>
	</g>
</g>
</svg>
