<!-- Generator: Adobe Illustrator 21.1.0, SVG Export Plug-In  -->
<svg version="1.1"
	 xmlns="http://www.w3.org/2000/svg" xmlns:xlink="http://www.w3.org/1999/xlink" xmlns:a="http://ns.adobe.com/AdobeSVGViewerExtensions/3.0/"
	 x="0px" y="0px" viewBox="0 0 236 236" style="enable-background:new 0 0 236 236;"
	 xml:space="preserve">
<style type="text/css">
	.st0{fill:none;}
	.st1{fill:#010002;}
</style>
<defs>
</defs>
<g>
	<rect class="st0" width="236" height="236"/>
	<g>
		<g>
			<g>
				<path class="st1" d="M152.6,38h-70c-4.6,0-8.4,3.6-8.4,8.1v145.7c0,4.5,3.8,8.1,8.4,8.1h70c4.7,0,8.4-3.6,8.4-8.1V46.1
					C161,41.6,157.2,38,152.6,38z M79.9,179.5h75.4v12.3c0,1.3-1.2,2.4-2.7,2.4h-70c-1.5,0-2.7-1.1-2.7-2.4V179.5z M155.2,62.1
					v111.7H79.9V62.1H155.2z M82.6,43.8h70c1.5,0,2.7,1.1,2.7,2.4v10.2H79.9V46.1C79.9,44.8,81.1,43.8,82.6,43.8z"/>
			</g>
			<g>
				<path class="st1" d="M117.6,191.4c2.6,0,4.7-2.1,4.7-4.7c0-2.6-2.1-4.7-4.7-4.7s-4.7,2.1-4.7,4.7
					C112.9,189.3,115,191.4,117.6,191.4z"/>
			</g>
		</g>
	</g>
</g>
</svg>
