<!-- Generator: Adobe Illustrator 21.1.0, SVG Export Plug-In  -->
<svg version="1.1"
	 xmlns="http://www.w3.org/2000/svg" xmlns:xlink="http://www.w3.org/1999/xlink" xmlns:a="http://ns.adobe.com/AdobeSVGViewerExtensions/3.0/"
	 x="0px" y="0px" viewBox="0 0 312 312" style="enable-background:new 0 0 312 312;"
	 xml:space="preserve">
<style type="text/css">
	.st0{fill:none;}
</style>
<defs>
</defs>
<g>
	<rect class="st0" width="312" height="312"/>
	<path d="M206.9,52.5c-19.7,0-38.5,9.2-50.8,23.6c-12.3-14.5-31.2-23.6-50.8-23.6C70.3,52.5,43,79.8,43,114.6
		c0,42.7,38.4,77.5,96.6,130.4l16.4,14.8l16.4-14.9c58.2-52.8,96.6-87.6,96.6-130.3C269,79.8,241.7,52.5,206.9,52.5z M157.1,228.2
		l-1.1,1.1l-1.1-1.1c-53.8-48.7-89.3-80.9-89.3-113.6c0-22.6,16.9-39.5,39.5-39.5c17.4,0,34.4,11.2,40.3,26.7h21.1
		c5.9-15.5,22.8-26.7,40.2-26.7c22.6,0,39.5,16.9,39.5,39.5C246.4,147.3,210.9,179.5,157.1,228.2z"/>
</g>
</svg>
