<!-- Generator: Adobe Illustrator 21.1.0, SVG Export Plug-In  -->
<svg version="1.1"
	 xmlns="http://www.w3.org/2000/svg" xmlns:xlink="http://www.w3.org/1999/xlink" xmlns:a="http://ns.adobe.com/AdobeSVGViewerExtensions/3.0/"
	 x="0px" y="0px" viewBox="0 0 312 312" style="enable-background:new 0 0 312 312;"
	 xml:space="preserve">
<style type="text/css">
	.st0{fill:none;}
	.st1{fill:#010002;}
	.st2{fill:#FFFFFF;}
</style>
<defs>
</defs>
<g>
	<rect class="st0" width="312" height="312"/>
	<g>
		<g>
			<g>
				<g>
					<path class="st1" d="M208.2,34.2H102.9c-7,0-12.7,5.5-12.7,12.2v219.2c0,6.7,5.7,12.2,12.7,12.2h105.3c7,0,12.7-5.5,12.7-12.2
						V46.4C220.9,39.6,215.2,34.2,208.2,34.2z M212.3,70.4v168H98.9v-168H212.3z"/>
				</g>
				<g>
					<path class="st2" d="M155.6,265c3.9,0,7.1-3.2,7.1-7.1c0-3.9-3.2-7.1-7.1-7.1s-7.1,3.2-7.1,7.1
						C148.5,261.8,151.7,265,155.6,265z"/>
				</g>
			</g>
		</g>
	</g>
</g>
</svg>
