<!-- Generator: Adobe Illustrator 21.1.0, SVG Export Plug-In  -->
<svg version="1.1"
	 xmlns="http://www.w3.org/2000/svg" xmlns:xlink="http://www.w3.org/1999/xlink" xmlns:a="http://ns.adobe.com/AdobeSVGViewerExtensions/3.0/"
	 x="0px" y="0px" viewBox="0 0 314.9 314.9" style="enable-background:new 0 0 314.9 314.9;"
	 xml:space="preserve">
<style type="text/css">
	.st0{fill:none;}
</style>
<defs>
</defs>
<g>
	<rect x="1.5" y="1.5" transform="matrix(1 9.357800e-03 -9.357800e-03 1 1.4803 -1.4665)" class="st0" width="312" height="312"/>
	<path d="M225,185.2c-13.5-14.2-31.4-23.4-51.7-26.6c26-6.6,45.4-30,45.7-58.1c0.3-33.4-26.6-60.8-59.9-61.1
		C125.7,39.2,98.3,66,98,99.4c-0.3,28,18.7,51.9,44.6,58.9c-20.3,2.8-38.4,11.7-52.1,25.6c-17.2,17.5-26.7,42.4-27,70.1l-0.1,9
		l187.3,1.8l0.1-9C250.9,228.1,241.8,203,225,185.2z M116,99.6c0.2-23.4,19.5-42.3,42.9-42.1s42.3,19.5,42.1,42.9
		c-0.2,23.4-19.5,42.3-42.9,42.1C134.7,142.2,115.8,123,116,99.6z M81.9,245.2c4-42.6,33.6-70.3,75.9-69.9s71.4,28.7,74.6,71.3
		L81.9,245.2z"/>
</g>
</svg>
