<!-- Generator: Adobe Illustrator 21.1.0, SVG Export Plug-In  -->
<svg version="1.1"
	 xmlns="http://www.w3.org/2000/svg" xmlns:xlink="http://www.w3.org/1999/xlink" xmlns:a="http://ns.adobe.com/AdobeSVGViewerExtensions/3.0/"
	 x="0px" y="0px" viewBox="0 0 312 312" style="enable-background:new 0 0 312 312;"
	 xml:space="preserve">
<style type="text/css">
	.st0{fill:none;}
</style>
<defs>
</defs>
<g>
	<rect class="st0" width="312" height="312"/>
	<g>
		<path d="M244,229L232.1,94.7c-0.5-5.5-5.2-9.8-10.7-9.8h-19.9c-2.8-22.8-22.4-40.6-45.9-40.6s-43.1,17.8-45.9,40.6H89.7
			c-5.6,0-10.2,4.2-10.7,9.8l-12,134.6l0,0.2c0,0.2,0,0.5,0,0.7c0,18.1,16.3,32.8,36.3,32.8h104.4c20,0,36.3-14.7,36.3-32.8
			C244.1,230,244.1,229.5,244,229z M131.5,84.8c2.6-10.9,12.5-19.1,24.1-19.1S177,74,179.6,84.8H131.5z M120,129.7
			c5.9,0,10.8-4.8,10.8-10.8v-12.5h49.5v12.5c0,5.9,4.8,10.8,10.8,10.8s10.8-4.8,10.8-10.8v-12.5h9.7l11.1,124.2
			c-0.3,6-6.9,10.9-14.8,10.9H103.3c-7.9,0-14.5-4.9-14.8-10.9l11-124.2h9.7v12.5C109.3,124.9,114.1,129.7,120,129.7z"/>
	</g>
</g>
</svg>
